<svg width="4647" height="2064" viewBox="0 0 4647 2064" fill="none" xmlns="http://www.w3.org/2000/svg">
<rect width="4646" height="2064" transform="translate(0.726562)" fill="white"/>
<path d="M2920.04 839.084C2954.26 858.076 2982.6 886.05 3002.08 920.105C3021.38 954.908 3031.55 994.109 3031.55 1033.96C3031.55 1073.82 3021.38 1113.02 3002.08 1147.82C2982.69 1182.07 2954.26 1210.23 2920.04 1229.31C2883.4 1249.52 2842.1 1259.72 2800.33 1258.88H2652.93V809.426H2800.33C2842.1 808.584 2883.4 818.876 2920.04 839.084ZM2805.27 1178.79C2830.26 1179.26 2854.87 1172.8 2876.5 1160.17C2898.04 1147.54 2915.75 1129.11 2927.59 1107.13C2939.43 1084.58 2945.68 1059.51 2945.68 1034.06C2945.68 1008.61 2939.53 983.537 2927.59 960.99C2915.94 939.471 2898.78 921.508 2877.71 908.972C2855.8 895.967 2830.72 889.418 2805.18 889.792H2736.93V1178.23L2805.27 1178.79Z" fill="#6D4AFF"/>
<path d="M3068.37 1076.06C3066.88 1040.79 3079 1006.36 3102.22 979.7C3124.96 955.094 3156.94 942.745 3198.34 942.745C3212.23 942.651 3226.12 944.242 3239.73 947.329V1022.36C3233.21 1022.36 3225.75 1021.71 3217.45 1021.71C3194.7 1021.71 3178.01 1026.95 3167.48 1037.52C3161.79 1044.07 3157.5 1051.74 3154.8 1059.97C3152.09 1068.21 3151.07 1076.91 3151.72 1085.61V1258.78H3068.84L3068.37 1076.06Z" fill="#6D4AFF"/>
<path d="M3273.39 884.833C3268.45 880.249 3264.53 874.729 3261.83 868.554C3259.13 862.379 3257.82 855.737 3257.91 849.001C3257.82 842.171 3259.22 835.528 3261.83 829.26C3264.53 822.992 3268.45 817.378 3273.39 812.794C3278.24 807.929 3283.92 804.093 3290.26 801.473C3296.6 798.854 3303.41 797.544 3310.22 797.637C3317.02 797.544 3323.73 798.854 3329.98 801.473C3336.23 804.093 3341.92 807.929 3346.67 812.794C3351.61 817.378 3355.53 822.992 3358.23 829.26C3360.93 835.528 3362.24 842.264 3362.15 849.001C3362.24 855.737 3360.93 862.379 3358.23 868.554C3355.53 874.729 3351.61 880.249 3346.67 884.833C3341.92 889.605 3336.23 893.347 3329.98 895.873C3323.73 898.399 3317.02 899.709 3310.31 899.615C3303.5 899.709 3296.7 898.493 3290.45 895.966C3284.02 893.347 3278.24 889.605 3273.39 884.833ZM3351.8 1258.41H3268.91V948.92H3351.8V1258.41Z" fill="#6D4AFF"/>
<path d="M3485.03 1258.41L3367.55 948.919H3454.82L3508.61 1107.03C3516.91 1134.72 3521.76 1151.28 3523.07 1157.08H3524.37C3528.29 1142.21 3533.6 1125.46 3539.47 1107.03L3593.27 948.919H3681.19L3563.71 1258.41H3485.03Z" fill="#6D4AFF"/>
<path d="M3985.59 1132.01H3752.7C3756.33 1150.72 3766.4 1167.65 3781.04 1179.82C3795.68 1191.23 3813.76 1197.22 3832.22 1196.66C3847.05 1197.22 3861.78 1194.6 3875.48 1189.08C3886.3 1183.84 3895.06 1175.32 3900.75 1164.66H3977.48C3969.46 1195.44 3950.25 1222.1 3923.68 1239.32C3896.93 1256.72 3865.69 1265.7 3833.81 1265.33C3804.63 1265.98 3775.72 1258.78 3750.18 1244.65C3726.31 1231.27 3706.73 1211.25 3693.68 1187.02C3680.16 1161.38 3673.26 1132.85 3673.73 1103.85C3673.26 1074.84 3680.25 1046.12 3694.05 1020.67C3707.1 996.536 3726.68 976.609 3750.46 963.043C3775.44 949.103 3803.6 942.179 3832.04 942.834C3859.91 942.46 3887.42 949.757 3911.47 963.885C3934.87 977.731 3953.98 997.753 3966.76 1021.8C3980.27 1047.06 3987.17 1075.41 3986.8 1104.03C3986.99 1113.39 3986.52 1122.75 3985.59 1132.01ZM3780.2 1028.63C3766.03 1040.23 3756.14 1056.23 3752.04 1074.1H3908.67C3906.25 1056.51 3897.21 1040.41 3883.41 1029.28C3868.96 1017.4 3850.68 1011.04 3831.94 1011.51C3813.2 1010.94 3794.93 1017.03 3780.2 1028.63Z" fill="#6D4AFF"/>
<path d="M660.727 1138.14V1258.07H744.465V1143.38C744.465 1132.25 748.838 1121.49 756.746 1113.63C764.562 1105.78 775.262 1101.29 786.334 1101.29H872.212C912.22 1101.29 950.647 1085.29 978.931 1056.76C1007.22 1028.32 1023.13 989.684 1023.13 949.459C1023.13 909.234 1007.22 870.599 978.931 842.068C950.647 813.629 912.22 797.633 872.119 797.633H660.727V947.495H744.465V876.867H866.536C885.517 876.867 903.66 884.444 917.058 897.915C930.456 911.386 937.993 929.627 937.993 948.711C937.993 967.794 930.456 986.036 917.058 999.507C903.66 1012.98 885.517 1020.55 866.536 1020.55H777.867C762.515 1020.55 747.256 1023.55 733.114 1029.54C718.878 1035.43 706.038 1044.13 695.152 1055.07C684.266 1066.02 675.706 1079.02 669.752 1093.24C663.797 1107.37 660.727 1122.71 660.727 1138.14Z" fill="#1B1340"/>
<path d="M1036.06 1258.07V1075.37C1036.06 1000.82 1079.32 941.508 1165.95 941.508C1179.81 941.32 1193.67 942.817 1207.26 946.091V1021.21C1197.4 1020.55 1188.93 1020.55 1184.93 1020.55C1139.06 1020.55 1119.33 1041.7 1119.33 1084.54V1258.07H1036.06Z" fill="#1B1340"/>
<path d="M1232.19 1103.16C1232.19 1011.48 1301.04 941.602 1396.88 941.602C1492.71 941.602 1561.56 1011.48 1561.56 1103.16C1561.56 1194.83 1492.71 1265.37 1396.88 1265.37C1301.04 1265.37 1232.19 1194.74 1232.19 1103.16ZM1479.5 1103.16C1479.5 1051.05 1444.7 1014.1 1396.88 1014.1C1348.96 1014.1 1314.25 1050.96 1314.25 1103.16C1314.25 1155.92 1349.05 1192.21 1396.88 1192.21C1444.79 1192.21 1479.5 1155.82 1479.5 1103.16Z" fill="#1B1340"/>
<path d="M1827.85 1103.16C1827.85 1011.48 1896.7 941.602 1992.53 941.602C2088.28 941.602 2157.13 1011.48 2157.13 1103.16C2157.13 1194.83 2088.28 1265.37 1992.53 1265.37C1896.7 1265.37 1827.85 1194.74 1827.85 1103.16ZM2075.06 1103.16C2075.06 1051.05 2040.27 1014.1 1992.44 1014.1C1944.62 1014.1 1909.82 1050.96 1909.82 1103.16C1909.82 1155.92 1944.62 1192.21 1992.44 1192.21C2040.27 1192.21 2075.06 1155.82 2075.06 1103.16Z" fill="#1B1340"/>
<path d="M2200.39 1258.07V1082.02C2200.39 1000.26 2252.22 941.509 2344.7 941.509C2436.53 941.509 2488.36 1000.16 2488.36 1082.02V1258.07H2405.74V1088.56C2405.74 1043.1 2385.36 1014.66 2344.7 1014.66C2304.04 1014.66 2283.67 1043.01 2283.67 1088.56V1258.07H2200.39Z" fill="#1B1340"/>
<path d="M1802.91 1014.75H1713.04V1130.19C1713.04 1170.41 1727.46 1188.84 1768.77 1188.84C1772.68 1188.84 1782.54 1188.84 1795.01 1188.19V1256.1C1777.98 1260.69 1762.91 1263.4 1746.44 1263.4C1676.94 1263.4 1629.67 1221.21 1629.67 1141.41V1014.75H1573.84V948.146H1587.8C1593.29 948.146 1598.78 947.024 1603.8 944.966C1608.92 942.814 1613.48 939.727 1617.39 935.798C1621.3 931.869 1624.37 927.285 1626.51 922.14C1628.65 916.995 1629.67 911.569 1629.67 906.05V843.28H1712.94V948.146H1802.82V1014.75H1802.91Z" fill="#1B1340"/>
</svg>
