<svg width="3327" height="754" viewBox="0 0 3327 754" fill="none" xmlns="http://www.w3.org/2000/svg">
<g clip-path="url(#clip0_11864_192267)">
<path d="M2260.04 180.084C2294.26 199.076 2322.6 227.05 2342.08 261.105C2361.38 295.908 2371.55 335.109 2371.55 374.965C2371.55 414.82 2361.38 454.021 2342.08 488.824C2322.69 523.066 2294.26 551.227 2260.04 570.313C2223.4 590.521 2182.1 600.719 2140.33 599.877H1992.93V150.426H2140.33C2182.1 149.584 2223.4 159.876 2260.04 180.084ZM2145.27 519.792C2170.26 520.259 2194.87 513.804 2216.5 501.174C2238.04 488.543 2255.75 470.113 2267.59 448.127C2279.43 425.579 2285.68 400.506 2285.68 375.058C2285.68 349.61 2279.53 324.537 2267.59 301.99C2255.94 280.471 2238.78 262.508 2217.71 249.972C2195.8 236.967 2170.72 230.418 2145.18 230.792H2076.93V519.23L2145.27 519.792Z" fill="#6D4AFF"/>
<path d="M2408.37 417.064C2406.88 381.793 2419 347.364 2442.22 320.7C2464.96 296.094 2496.94 283.745 2538.34 283.745C2552.23 283.651 2566.12 285.242 2579.73 288.329V363.362C2573.21 363.362 2565.75 362.707 2557.45 362.707C2534.7 362.707 2518.01 367.946 2507.48 378.518C2501.79 385.067 2497.5 392.739 2494.8 400.972C2492.09 409.205 2491.07 417.906 2491.72 426.607V599.782H2408.84L2408.37 417.064Z" fill="#6D4AFF"/>
<path d="M2613.39 225.833C2608.45 221.249 2604.53 215.729 2601.83 209.554C2599.13 203.379 2597.82 196.737 2597.91 190.001C2597.82 183.171 2599.22 176.528 2601.83 170.26C2604.53 163.992 2608.45 158.378 2613.39 153.794C2618.24 148.929 2623.92 145.093 2630.26 142.473C2636.6 139.854 2643.41 138.544 2650.22 138.637C2657.02 138.544 2663.73 139.854 2669.98 142.473C2676.23 145.093 2681.92 148.929 2686.67 153.794C2691.61 158.378 2695.53 163.992 2698.23 170.26C2700.93 176.528 2702.24 183.264 2702.15 190.001C2702.24 196.737 2700.93 203.379 2698.23 209.554C2695.53 215.729 2691.61 221.249 2686.67 225.833C2681.92 230.605 2676.23 234.347 2669.98 236.873C2663.73 239.399 2657.02 240.709 2650.31 240.615C2643.5 240.709 2636.7 239.493 2630.45 236.966C2624.02 234.347 2618.24 230.605 2613.39 225.833ZM2691.8 599.408H2608.91V289.92H2691.8V599.408Z" fill="#6D4AFF"/>
<path d="M2825.03 599.407L2707.55 289.919H2794.82L2848.61 448.031C2856.91 475.724 2861.76 492.284 2863.07 498.085H2864.37C2868.29 483.209 2873.6 466.462 2879.47 448.031L2933.27 289.919H3021.19L2903.71 599.407H2825.03Z" fill="#6D4AFF"/>
<path d="M3325.59 473.008H3092.7C3096.33 491.719 3106.4 508.653 3121.04 520.816C3135.68 532.23 3153.76 538.217 3172.22 537.656C3187.05 538.217 3201.78 535.598 3215.48 530.078C3226.3 524.839 3235.06 516.325 3240.75 505.659H3317.48C3309.46 536.44 3290.25 563.104 3263.68 580.318C3236.93 597.72 3205.69 606.701 3173.81 606.327C3144.63 606.982 3115.72 599.778 3090.18 585.651C3066.31 572.272 3046.73 552.251 3033.68 528.019C3020.16 502.385 3013.26 473.85 3013.73 444.847C3013.26 415.844 3020.25 387.122 3034.05 361.674C3047.1 337.536 3066.68 317.609 3090.46 304.043C3115.44 290.103 3143.6 283.179 3172.04 283.834C3199.91 283.46 3227.42 290.757 3251.47 304.885C3274.87 318.731 3293.98 338.753 3306.76 362.797C3320.27 388.057 3327.17 416.405 3326.8 445.034C3326.99 454.39 3326.52 463.745 3325.59 473.008ZM3120.2 369.627C3106.03 381.228 3096.14 397.226 3092.04 415.095H3248.67C3246.25 397.507 3237.21 381.415 3223.41 370.281C3208.96 358.4 3190.68 352.038 3171.94 352.506C3153.2 351.944 3134.93 358.025 3120.2 369.627Z" fill="#6D4AFF"/>
<path d="M0.726562 479.143V599.07H84.4647V484.382C84.4647 473.25 88.8377 462.492 96.7463 454.634C104.562 446.776 115.262 442.286 126.334 442.286H212.212C252.22 442.286 290.647 426.289 318.931 397.758C347.216 369.319 363.126 330.684 363.126 290.459C363.126 250.234 347.216 211.599 318.931 183.068C290.647 154.629 252.22 138.633 212.119 138.633H0.726562V288.495H84.4647V217.867H206.536C225.517 217.867 243.66 225.444 257.058 238.915C270.456 252.386 277.993 270.627 277.993 289.711C277.993 308.794 270.456 327.036 257.058 340.507C243.66 353.978 225.517 361.555 206.536 361.555H117.867C102.515 361.555 87.256 364.548 73.1135 370.535C58.8781 376.429 46.0382 385.129 35.1522 396.074C24.2663 407.019 15.7064 420.022 9.75174 434.241C3.79703 448.366 0.726562 463.708 0.726562 479.143Z" fill="#1B1340"/>
<path d="M376.06 599.07V416.373C376.06 341.816 419.325 282.508 505.947 282.508C519.811 282.32 533.674 283.817 547.258 287.091V362.21C537.396 361.555 528.929 361.555 524.928 361.555C479.058 361.555 459.333 382.696 459.333 425.541V599.07H376.06Z" fill="#1B1340"/>
<path d="M572.19 444.158C572.19 352.482 641.042 282.602 736.875 282.602C832.709 282.602 901.56 352.482 901.56 444.158C901.56 535.834 832.709 606.368 736.875 606.368C641.042 606.368 572.19 535.74 572.19 444.158ZM819.497 444.158C819.497 392.052 784.699 355.101 736.875 355.101C688.958 355.101 654.253 391.959 654.253 444.158C654.253 496.918 689.051 533.215 736.875 533.215C784.792 533.215 819.497 496.825 819.497 444.158Z" fill="#1B1340"/>
<path d="M1167.85 444.158C1167.85 352.482 1236.7 282.602 1332.53 282.602C1428.28 282.602 1497.13 352.482 1497.13 444.158C1497.13 535.834 1428.28 606.368 1332.53 606.368C1236.7 606.368 1167.85 535.74 1167.85 444.158ZM1415.06 444.158C1415.06 392.052 1380.27 355.101 1332.44 355.101C1284.62 355.101 1249.82 391.959 1249.82 444.158C1249.82 496.918 1284.62 533.215 1332.44 533.215C1380.27 533.215 1415.06 496.825 1415.06 444.158Z" fill="#1B1340"/>
<path d="M1540.39 599.072V423.016C1540.39 341.256 1592.22 282.509 1684.7 282.509C1776.53 282.509 1828.36 341.163 1828.36 423.016V599.072H1745.74V429.565C1745.74 384.101 1725.36 355.663 1684.7 355.663C1644.04 355.663 1623.67 384.007 1623.67 429.565V599.072H1540.39Z" fill="#1B1340"/>
<path d="M1142.91 355.752H1053.04V471.188C1053.04 511.414 1067.46 529.842 1108.77 529.842C1112.68 529.842 1122.54 529.842 1135.01 529.187V597.102C1117.98 601.686 1102.91 604.399 1086.44 604.399C1016.94 604.399 969.67 562.21 969.67 482.414V355.752H913.844V289.146H927.8C933.29 289.146 938.779 288.024 943.804 285.966C948.921 283.814 953.48 280.727 957.388 276.798C961.296 272.869 964.366 268.285 966.506 263.14C968.646 257.995 969.67 252.569 969.67 247.05V184.28H1052.94V289.146H1142.82V355.752H1142.91Z" fill="#1B1340"/>
</g>
<defs>
<clipPath id="clip0_11864_192267">
<rect width="3326" height="754" fill="white" transform="translate(0.726562)"/>
</clipPath>
</defs>
</svg>
