<svg width="4647" height="2064" viewBox="0 0 4647 2064" fill="none" xmlns="http://www.w3.org/2000/svg">
<path d="M2919.54 839.084C2953.76 858.076 2982.1 886.05 3001.58 920.105C3020.88 954.908 3031.05 994.109 3031.05 1033.96C3031.05 1073.82 3020.88 1113.02 3001.58 1147.82C2982.19 1182.07 2953.76 1210.23 2919.54 1229.31C2882.9 1249.52 2841.6 1259.72 2799.83 1258.88H2652.43V809.426H2799.83C2841.6 808.584 2882.9 818.876 2919.54 839.084ZM2804.77 1178.79C2829.76 1179.26 2854.37 1172.8 2876 1160.17C2897.54 1147.54 2915.25 1129.11 2927.09 1107.13C2938.93 1084.58 2945.18 1059.51 2945.18 1034.06C2945.18 1008.61 2939.03 983.537 2927.09 960.99C2915.44 939.471 2898.28 921.508 2877.21 908.972C2855.3 895.967 2830.22 889.418 2804.68 889.792H2736.43V1178.23L2804.77 1178.79Z" fill="#6D4AFF"/>
<path d="M3067.87 1076.06C3066.38 1040.79 3078.5 1006.36 3101.72 979.7C3124.46 955.094 3156.44 942.745 3197.84 942.745C3211.73 942.651 3225.62 944.242 3239.23 947.329V1022.36C3232.71 1022.36 3225.25 1021.71 3216.95 1021.71C3194.2 1021.71 3177.51 1026.95 3166.98 1037.52C3161.29 1044.07 3157 1051.74 3154.3 1059.97C3151.59 1068.21 3150.57 1076.91 3151.22 1085.61V1258.78H3068.34L3067.87 1076.06Z" fill="#6D4AFF"/>
<path d="M3272.89 884.833C3267.95 880.249 3264.03 874.729 3261.33 868.554C3258.63 862.379 3257.32 855.737 3257.41 849.001C3257.32 842.171 3258.72 835.528 3261.33 829.26C3264.03 822.992 3267.95 817.378 3272.89 812.794C3277.74 807.929 3283.42 804.093 3289.76 801.473C3296.1 798.854 3302.91 797.544 3309.72 797.637C3316.52 797.544 3323.23 798.854 3329.48 801.473C3335.73 804.093 3341.42 807.929 3346.17 812.794C3351.11 817.378 3355.03 822.992 3357.73 829.26C3360.43 835.528 3361.74 842.264 3361.65 849.001C3361.74 855.737 3360.43 862.379 3357.73 868.554C3355.03 874.729 3351.11 880.249 3346.17 884.833C3341.42 889.605 3335.73 893.347 3329.48 895.873C3323.23 898.399 3316.52 899.709 3309.81 899.615C3303 899.709 3296.2 898.493 3289.95 895.966C3283.52 893.347 3277.74 889.605 3272.89 884.833ZM3351.3 1258.41H3268.41V948.92H3351.3V1258.41Z" fill="#6D4AFF"/>
<path d="M3484.53 1258.41L3367.05 948.919H3454.32L3508.11 1107.03C3516.41 1134.72 3521.26 1151.28 3522.57 1157.08H3523.87C3527.79 1142.21 3533.1 1125.46 3538.97 1107.03L3592.77 948.919H3680.69L3563.21 1258.41H3484.53Z" fill="#6D4AFF"/>
<path d="M3985.09 1132.01H3752.2C3755.83 1150.72 3765.9 1167.65 3780.54 1179.82C3795.18 1191.23 3813.26 1197.22 3831.72 1196.66C3846.55 1197.22 3861.28 1194.6 3874.98 1189.08C3885.8 1183.84 3894.56 1175.32 3900.25 1164.66H3976.98C3968.96 1195.44 3949.75 1222.1 3923.18 1239.32C3896.43 1256.72 3865.19 1265.7 3833.31 1265.33C3804.13 1265.98 3775.22 1258.78 3749.68 1244.65C3725.81 1231.27 3706.23 1211.25 3693.18 1187.02C3679.66 1161.38 3672.76 1132.85 3673.23 1103.85C3672.76 1074.84 3679.75 1046.12 3693.55 1020.67C3706.6 996.536 3726.18 976.609 3749.96 963.043C3774.94 949.103 3803.1 942.179 3831.54 942.834C3859.41 942.46 3886.92 949.757 3910.97 963.885C3934.37 977.731 3953.48 997.753 3966.26 1021.8C3979.77 1047.06 3986.67 1075.41 3986.3 1104.03C3986.49 1113.39 3986.02 1122.75 3985.09 1132.01ZM3779.7 1028.63C3765.53 1040.23 3755.64 1056.23 3751.54 1074.1H3908.17C3905.75 1056.51 3896.71 1040.41 3882.91 1029.28C3868.46 1017.4 3850.18 1011.04 3831.44 1011.51C3812.7 1010.94 3794.43 1017.03 3779.7 1028.63Z" fill="#6D4AFF"/>
<path d="M660.227 1138.14V1258.07H743.965V1143.38C743.965 1132.25 748.338 1121.49 756.246 1113.63C764.062 1105.78 774.762 1101.29 785.834 1101.29H871.712C911.72 1101.29 950.147 1085.29 978.431 1056.76C1006.72 1028.32 1022.63 989.684 1022.63 949.459C1022.63 909.234 1006.72 870.599 978.431 842.068C950.147 813.629 911.72 797.633 871.619 797.633H660.227V947.495H743.965V876.867H866.036C885.017 876.867 903.16 884.444 916.558 897.915C929.956 911.386 937.493 929.627 937.493 948.711C937.493 967.794 929.956 986.036 916.558 999.507C903.16 1012.98 885.017 1020.55 866.036 1020.55H777.367C762.015 1020.55 746.756 1023.55 732.614 1029.54C718.378 1035.43 705.538 1044.13 694.652 1055.07C683.766 1066.02 675.206 1079.02 669.252 1093.24C663.297 1107.37 660.227 1122.71 660.227 1138.14Z" fill="#1B1340"/>
<path d="M1035.56 1258.07V1075.37C1035.56 1000.82 1078.82 941.508 1165.45 941.508C1179.31 941.32 1193.17 942.817 1206.76 946.091V1021.21C1196.9 1020.55 1188.43 1020.55 1184.43 1020.55C1138.56 1020.55 1118.83 1041.7 1118.83 1084.54V1258.07H1035.56Z" fill="#1B1340"/>
<path d="M1231.69 1103.16C1231.69 1011.48 1300.54 941.602 1396.38 941.602C1492.21 941.602 1561.06 1011.48 1561.06 1103.16C1561.06 1194.83 1492.21 1265.37 1396.38 1265.37C1300.54 1265.37 1231.69 1194.74 1231.69 1103.16ZM1479 1103.16C1479 1051.05 1444.2 1014.1 1396.38 1014.1C1348.46 1014.1 1313.75 1050.96 1313.75 1103.16C1313.75 1155.92 1348.55 1192.21 1396.38 1192.21C1444.29 1192.21 1479 1155.82 1479 1103.16Z" fill="#1B1340"/>
<path d="M1827.35 1103.16C1827.35 1011.48 1896.2 941.602 1992.03 941.602C2087.78 941.602 2156.63 1011.48 2156.63 1103.16C2156.63 1194.83 2087.78 1265.37 1992.03 1265.37C1896.2 1265.37 1827.35 1194.74 1827.35 1103.16ZM2074.56 1103.16C2074.56 1051.05 2039.77 1014.1 1991.94 1014.1C1944.12 1014.1 1909.32 1050.96 1909.32 1103.16C1909.32 1155.92 1944.12 1192.21 1991.94 1192.21C2039.77 1192.21 2074.56 1155.82 2074.56 1103.16Z" fill="#1B1340"/>
<path d="M2199.89 1258.07V1082.02C2199.89 1000.26 2251.72 941.509 2344.2 941.509C2436.03 941.509 2487.86 1000.16 2487.86 1082.02V1258.07H2405.24V1088.56C2405.24 1043.1 2384.86 1014.66 2344.2 1014.66C2303.54 1014.66 2283.17 1043.01 2283.17 1088.56V1258.07H2199.89Z" fill="#1B1340"/>
<path d="M1802.41 1014.75H1712.54V1130.19C1712.54 1170.41 1726.96 1188.84 1768.27 1188.84C1772.18 1188.84 1782.04 1188.84 1794.51 1188.19V1256.1C1777.48 1260.69 1762.41 1263.4 1745.94 1263.4C1676.44 1263.4 1629.17 1221.21 1629.17 1141.41V1014.75H1573.34V948.146H1587.3C1592.79 948.146 1598.28 947.024 1603.3 944.966C1608.42 942.814 1612.98 939.727 1616.89 935.798C1620.8 931.869 1623.87 927.285 1626.01 922.14C1628.15 916.995 1629.17 911.569 1629.17 906.05V843.28H1712.44V948.146H1802.32V1014.75H1802.41Z" fill="#1B1340"/>
</svg>
