<svg width="3001" height="1080" viewBox="0 0 3001 1080" fill="none" xmlns="http://www.w3.org/2000/svg">
<path d="M0 637.774V747.724H76.7974V642.576C76.7974 632.37 80.808 622.507 88.061 615.303C95.2288 608.099 105.042 603.982 115.196 603.982H193.956C230.648 603.982 265.89 589.317 291.83 563.158C317.77 537.086 332.362 501.665 332.362 464.787C332.362 427.908 317.77 392.487 291.83 366.329C265.89 340.257 230.648 325.591 193.871 325.591H0V462.986H76.7974V398.233H188.751C206.158 398.233 222.798 405.18 235.085 417.53C247.373 429.88 254.285 446.605 254.285 464.1C254.285 481.596 247.373 498.32 235.085 510.671C222.798 523.021 206.158 529.968 188.751 529.968H107.431C93.3515 529.968 79.3573 532.712 66.3871 538.201C53.3315 543.604 41.5559 551.58 31.5723 561.615C21.5886 571.649 13.7383 583.57 8.27711 596.607C2.81597 609.557 0 623.622 0 637.774Z" fill="#1B1340"/>
<path d="M344.224 747.723V580.225C344.224 511.871 383.902 457.496 463.345 457.496C476.059 457.325 488.773 458.697 501.232 461.699V530.568C492.187 529.967 484.421 529.967 480.752 529.967C438.684 529.967 420.594 549.35 420.594 588.63V747.723H344.224Z" fill="#1B1340"/>
<path d="M524.097 605.699C524.097 521.649 587.242 457.583 675.132 457.583C763.022 457.583 826.167 521.649 826.167 605.699C826.167 689.748 763.022 754.414 675.132 754.414C587.242 754.414 524.097 689.662 524.097 605.699ZM750.905 605.699C750.905 557.928 718.992 524.051 675.132 524.051C631.187 524.051 599.358 557.842 599.358 605.699C599.358 654.07 631.272 687.347 675.132 687.347C719.077 687.347 750.905 653.984 750.905 605.699Z" fill="#1B1340"/>
<path d="M1070.38 605.699C1070.38 521.649 1133.53 457.583 1221.42 457.583C1309.22 457.583 1372.37 521.649 1372.37 605.699C1372.37 689.748 1309.22 754.414 1221.42 754.414C1133.53 754.414 1070.38 689.662 1070.38 605.699ZM1297.11 605.699C1297.11 557.928 1265.19 524.051 1221.33 524.051C1177.47 524.051 1145.56 557.842 1145.56 605.699C1145.56 654.07 1177.47 687.347 1221.33 687.347C1265.19 687.347 1297.11 653.984 1297.11 605.699Z" fill="#1B1340"/>
<path d="M1412.05 747.725V586.316C1412.05 511.358 1459.58 457.498 1544.4 457.498C1628.62 457.498 1676.15 511.272 1676.15 586.316V747.725H1600.37V592.319C1600.37 550.638 1581.69 524.566 1544.4 524.566C1507.11 524.566 1488.42 550.552 1488.42 592.319V747.725H1412.05Z" fill="#1B1340"/>
<path d="M1047.52 524.647H965.087V630.481C965.087 667.359 978.313 684.255 1016.2 684.255C1019.78 684.255 1028.83 684.255 1040.26 683.654V745.92C1024.65 750.122 1010.82 752.609 995.721 752.609C931.979 752.609 888.631 713.929 888.631 640.772V524.647H837.433V463.583H850.232C855.267 463.583 860.301 462.554 864.909 460.667C869.602 458.694 873.783 455.864 877.367 452.262C880.951 448.66 883.767 444.457 885.73 439.74C887.692 435.023 888.631 430.049 888.631 424.989V367.441H965.002V463.583H1047.43V524.647H1047.52Z" fill="#1B1340"/>
<path d="M2311.37 469.5C2225.54 469.5 2161.92 532.5 2161.92 616.5C2161.92 705.3 2223.14 764.1 2296.97 764.1C2337.78 764.1 2370.19 746.1 2388.2 715.5L2393 757.5H2460.22V617.1C2460.22 525.9 2396.6 469.5 2311.37 469.5ZM2311.37 697.5C2268.76 697.5 2236.95 664.5 2236.95 616.5C2236.95 568.5 2269.36 535.5 2311.37 535.5C2352.78 535.5 2385.2 567.3 2385.2 616.5C2385.2 671.7 2347.98 697.5 2311.37 697.5Z" fill="#6D4AFF"/>
<path d="M2607.48 764.1C2665.1 764.1 2714.32 731.1 2714.32 680.7C2714.32 572.7 2568.47 597.9 2568.47 554.1C2568.47 539.7 2581.08 528.9 2600.88 528.9C2621.29 528.9 2634.49 540.3 2637.49 557.1H2708.92C2704.72 501.9 2662.7 468.9 2600.88 469.5C2537.26 469.5 2498.25 507.3 2498.25 554.1C2498.25 663.3 2642.3 635.1 2642.3 680.7C2642.3 694.5 2629.09 704.7 2607.48 704.7C2586.48 704.7 2567.27 694.5 2563.67 672.9H2491.05C2495.25 726.3 2542.06 764.1 2607.48 764.1Z" fill="#6D4AFF"/>
<path d="M2859.83 764.1C2917.45 764.1 2966.66 731.1 2966.66 680.7C2966.66 572.7 2820.81 597.9 2820.81 554.1C2820.81 539.7 2833.42 528.9 2853.22 528.9C2873.63 528.9 2886.84 540.3 2889.84 557.1H2961.26C2957.06 501.9 2915.05 468.9 2853.22 469.5C2789.6 469.5 2750.59 507.3 2750.59 554.1C2750.59 663.3 2894.64 635.1 2894.64 680.7C2894.64 694.5 2881.43 704.7 2859.83 704.7C2838.82 704.7 2819.61 694.5 2816.01 672.9H2743.39C2747.59 726.3 2794.4 764.1 2859.83 764.1Z" fill="#6D4AFF"/>
<path d="M2024.84 330H1827.61V757.514H1905.74V651.091C1905.74 640.753 1909.82 630.762 1917.2 623.465C1924.49 616.167 1934.47 611.997 1944.8 611.997H2024.84C2062.17 611.997 2097.93 597.142 2124.23 570.818C2150.62 544.408 2165.38 508.616 2165.38 471.346C2165.47 452.842 2161.91 434.424 2154.88 417.31C2147.84 400.195 2137.51 384.558 2124.41 371.44C2111.3 358.321 2095.85 347.896 2078.75 340.773C2061.73 333.649 2043.42 330 2024.84 330ZM2086.38 470.217C2086.38 478.991 2084.65 487.679 2081.26 495.758C2077.88 503.838 2073.02 511.222 2066.77 517.39C2060.6 523.558 2053.22 528.51 2045.15 531.811C2037.08 535.2 2028.4 536.85 2019.63 536.85H1905.39V403.67H2019.63C2028.4 403.67 2037.08 405.408 2045.24 408.796C2053.31 412.184 2060.69 417.136 2066.85 423.304C2073.02 429.559 2077.96 436.944 2081.26 445.023C2084.56 453.189 2086.3 461.877 2086.21 470.651L2086.38 470.217Z" fill="#6D4AFF"/>
</svg>
