<svg width="4096" height="1897" viewBox="0 0 4096 1897" fill="none" xmlns="http://www.w3.org/2000/svg">
<rect width="4096" height="1897" fill="white"/>
<path d="M605 1046.77V1156.72H681.797V1051.58C681.797 1041.37 685.808 1031.51 693.061 1024.3C700.229 1017.1 710.042 1012.98 720.196 1012.98H798.956C835.648 1012.98 870.89 998.317 896.83 972.158C922.77 946.086 937.362 910.665 937.362 873.787C937.362 836.908 922.77 801.487 896.83 775.329C870.89 749.257 835.648 734.591 798.871 734.591H605V871.986H681.797V807.233H793.751C811.158 807.233 827.798 814.18 840.085 826.53C852.373 838.88 859.285 855.605 859.285 873.1C859.285 890.596 852.373 907.32 840.085 919.671C827.798 932.021 811.158 938.968 793.751 938.968H712.431C698.351 938.968 684.357 941.712 671.387 947.201C658.332 952.604 646.556 960.58 636.572 970.615C626.589 980.649 618.738 992.57 613.277 1005.61C607.816 1018.56 605 1032.62 605 1046.77Z" fill="#1B1340"/>
<path d="M949.224 1156.72V989.225C949.224 920.871 988.902 866.496 1068.34 866.496C1081.06 866.325 1093.77 867.697 1106.23 870.699V939.568C1097.19 938.967 1089.42 938.967 1085.75 938.967C1043.68 938.967 1025.59 958.35 1025.59 997.63V1156.72H949.224Z" fill="#1B1340"/>
<path d="M1129.1 1014.7C1129.1 930.649 1192.24 866.583 1280.13 866.583C1368.02 866.583 1431.17 930.649 1431.17 1014.7C1431.17 1098.75 1368.02 1163.41 1280.13 1163.41C1192.24 1163.41 1129.1 1098.66 1129.1 1014.7ZM1355.91 1014.7C1355.91 966.928 1323.99 933.051 1280.13 933.051C1236.19 933.051 1204.36 966.842 1204.36 1014.7C1204.36 1063.07 1236.27 1096.35 1280.13 1096.35C1324.08 1096.35 1355.91 1062.98 1355.91 1014.7Z" fill="#1B1340"/>
<path d="M1675.38 1014.7C1675.38 930.649 1738.53 866.583 1826.42 866.583C1914.22 866.583 1977.37 930.649 1977.37 1014.7C1977.37 1098.75 1914.22 1163.41 1826.42 1163.41C1738.53 1163.41 1675.38 1098.66 1675.38 1014.7ZM1902.11 1014.7C1902.11 966.928 1870.19 933.051 1826.33 933.051C1782.47 933.051 1750.56 966.842 1750.56 1014.7C1750.56 1063.07 1782.47 1096.35 1826.33 1096.35C1870.19 1096.35 1902.11 1062.98 1902.11 1014.7Z" fill="#1B1340"/>
<path d="M2017.05 1156.72V995.316C2017.05 920.358 2064.58 866.498 2149.4 866.498C2233.62 866.498 2281.15 920.272 2281.15 995.316V1156.72H2205.37V1001.32C2205.37 959.638 2186.69 933.566 2149.4 933.566C2112.11 933.566 2093.42 959.552 2093.42 1001.32V1156.72H2017.05Z" fill="#1B1340"/>
<path d="M1652.52 933.647H1570.09V1039.48C1570.09 1076.36 1583.31 1093.25 1621.2 1093.25C1624.78 1093.25 1633.83 1093.25 1645.26 1092.65V1154.92C1629.65 1159.12 1615.82 1161.61 1600.72 1161.61C1536.98 1161.61 1493.63 1122.93 1493.63 1049.77V933.647H1442.43V872.583H1455.23C1460.27 872.583 1465.3 871.554 1469.91 869.667C1474.6 867.694 1478.78 864.864 1482.37 861.262C1485.95 857.66 1488.77 853.457 1490.73 848.74C1492.69 844.023 1493.63 839.049 1493.63 833.989V776.441H1570V872.583H1652.43V933.647H1652.52Z" fill="#1B1340"/>
<path d="M2916.37 878.5C2830.54 878.5 2766.92 941.5 2766.92 1025.5C2766.92 1114.3 2828.14 1173.1 2901.97 1173.1C2942.78 1173.1 2975.19 1155.1 2993.2 1124.5L2998 1166.5H3065.22V1026.1C3065.22 934.9 3001.6 878.5 2916.37 878.5ZM2916.37 1106.5C2873.76 1106.5 2841.95 1073.5 2841.95 1025.5C2841.95 977.5 2874.36 944.5 2916.37 944.5C2957.78 944.5 2990.2 976.3 2990.2 1025.5C2990.2 1080.7 2952.98 1106.5 2916.37 1106.5Z" fill="#6D4AFF"/>
<path d="M3212.48 1173.1C3270.1 1173.1 3319.32 1140.1 3319.32 1089.7C3319.32 981.7 3173.47 1006.9 3173.47 963.1C3173.47 948.7 3186.08 937.9 3205.88 937.9C3226.29 937.9 3239.49 949.3 3242.49 966.1H3313.92C3309.72 910.9 3267.7 877.9 3205.88 878.5C3142.26 878.5 3103.25 916.3 3103.25 963.1C3103.25 1072.3 3247.3 1044.1 3247.3 1089.7C3247.3 1103.5 3234.09 1113.7 3212.48 1113.7C3191.48 1113.7 3172.27 1103.5 3168.67 1081.9H3096.05C3100.25 1135.3 3147.06 1173.1 3212.48 1173.1Z" fill="#6D4AFF"/>
<path d="M3464.83 1173.1C3522.45 1173.1 3571.66 1140.1 3571.66 1089.7C3571.66 981.7 3425.81 1006.9 3425.81 963.1C3425.81 948.7 3438.42 937.9 3458.22 937.9C3478.63 937.9 3491.84 949.3 3494.84 966.1H3566.26C3562.06 910.9 3520.05 877.9 3458.22 878.5C3394.6 878.5 3355.59 916.3 3355.59 963.1C3355.59 1072.3 3499.64 1044.1 3499.64 1089.7C3499.64 1103.5 3486.43 1113.7 3464.83 1113.7C3443.82 1113.7 3424.61 1103.5 3421.01 1081.9H3348.39C3352.59 1135.3 3399.4 1173.1 3464.83 1173.1Z" fill="#6D4AFF"/>
<path d="M2629.84 739H2432.61V1166.51H2510.74V1060.09C2510.74 1049.75 2514.82 1039.76 2522.2 1032.46C2529.49 1025.17 2539.47 1021 2549.8 1021H2629.84C2667.17 1021 2702.93 1006.14 2729.23 979.818C2755.62 953.408 2770.38 917.616 2770.38 880.346C2770.47 861.842 2766.91 843.424 2759.88 826.31C2752.84 809.195 2742.51 793.558 2729.41 780.44C2716.3 767.321 2700.85 756.896 2683.75 749.773C2666.73 742.649 2648.42 739 2629.84 739ZM2691.38 879.217C2691.38 887.991 2689.65 896.679 2686.26 904.758C2682.88 912.838 2678.02 920.222 2671.77 926.39C2665.6 932.558 2658.22 937.51 2650.15 940.811C2642.08 944.2 2633.4 945.85 2624.63 945.85H2510.39V812.67H2624.63C2633.4 812.67 2642.08 814.408 2650.24 817.796C2658.31 821.184 2665.69 826.136 2671.85 832.304C2678.02 838.559 2682.96 845.944 2686.26 854.023C2689.56 862.189 2691.3 870.877 2691.21 879.651L2691.38 879.217Z" fill="#6D4AFF"/>
</svg>
