<svg width="4096" height="1897" viewBox="0 0 4096 1897" fill="none" xmlns="http://www.w3.org/2000/svg">
<path d="M606 1046.77V1156.72H682.797V1051.58C682.797 1041.37 686.808 1031.51 694.061 1024.3C701.229 1017.1 711.042 1012.98 721.196 1012.98H799.956C836.648 1012.98 871.89 998.317 897.83 972.158C923.77 946.086 938.362 910.665 938.362 873.787C938.362 836.908 923.77 801.487 897.83 775.329C871.89 749.257 836.648 734.591 799.871 734.591H606V871.986H682.797V807.233H794.751C812.158 807.233 828.798 814.18 841.085 826.53C853.373 838.88 860.285 855.605 860.285 873.1C860.285 890.596 853.373 907.32 841.085 919.671C828.798 932.021 812.158 938.968 794.751 938.968H713.431C699.351 938.968 685.357 941.712 672.387 947.201C659.332 952.604 647.556 960.58 637.572 970.615C627.589 980.649 619.738 992.57 614.277 1005.61C608.816 1018.56 606 1032.62 606 1046.77Z" fill="#1B1340"/>
<path d="M950.224 1156.72V989.225C950.224 920.871 989.902 866.496 1069.34 866.496C1082.06 866.325 1094.77 867.697 1107.23 870.699V939.568C1098.19 938.967 1090.42 938.967 1086.75 938.967C1044.68 938.967 1026.59 958.35 1026.59 997.63V1156.72H950.224Z" fill="#1B1340"/>
<path d="M1130.1 1014.7C1130.1 930.649 1193.24 866.583 1281.13 866.583C1369.02 866.583 1432.17 930.649 1432.17 1014.7C1432.17 1098.75 1369.02 1163.41 1281.13 1163.41C1193.24 1163.41 1130.1 1098.66 1130.1 1014.7ZM1356.91 1014.7C1356.91 966.928 1324.99 933.051 1281.13 933.051C1237.19 933.051 1205.36 966.842 1205.36 1014.7C1205.36 1063.07 1237.27 1096.35 1281.13 1096.35C1325.08 1096.35 1356.91 1062.98 1356.91 1014.7Z" fill="#1B1340"/>
<path d="M1676.38 1014.7C1676.38 930.649 1739.53 866.583 1827.42 866.583C1915.22 866.583 1978.37 930.649 1978.37 1014.7C1978.37 1098.75 1915.22 1163.41 1827.42 1163.41C1739.53 1163.41 1676.38 1098.66 1676.38 1014.7ZM1903.11 1014.7C1903.11 966.928 1871.19 933.051 1827.33 933.051C1783.47 933.051 1751.56 966.842 1751.56 1014.7C1751.56 1063.07 1783.47 1096.35 1827.33 1096.35C1871.19 1096.35 1903.11 1062.98 1903.11 1014.7Z" fill="#1B1340"/>
<path d="M2018.05 1156.72V995.316C2018.05 920.358 2065.58 866.498 2150.4 866.498C2234.62 866.498 2282.15 920.272 2282.15 995.316V1156.72H2206.37V1001.32C2206.37 959.638 2187.69 933.566 2150.4 933.566C2113.11 933.566 2094.42 959.552 2094.42 1001.32V1156.72H2018.05Z" fill="#1B1340"/>
<path d="M1653.52 933.647H1571.09V1039.48C1571.09 1076.36 1584.31 1093.25 1622.2 1093.25C1625.78 1093.25 1634.83 1093.25 1646.26 1092.65V1154.92C1630.65 1159.12 1616.82 1161.61 1601.72 1161.61C1537.98 1161.61 1494.63 1122.93 1494.63 1049.77V933.647H1443.43V872.583H1456.23C1461.27 872.583 1466.3 871.554 1470.91 869.667C1475.6 867.694 1479.78 864.864 1483.37 861.262C1486.95 857.66 1489.77 853.457 1491.73 848.74C1493.69 844.023 1494.63 839.049 1494.63 833.989V776.441H1571V872.583H1653.43V933.647H1653.52Z" fill="#1B1340"/>
<path d="M2917.37 878.5C2831.54 878.5 2767.92 941.5 2767.92 1025.5C2767.92 1114.3 2829.14 1173.1 2902.97 1173.1C2943.78 1173.1 2976.19 1155.1 2994.2 1124.5L2999 1166.5H3066.22V1026.1C3066.22 934.9 3002.6 878.5 2917.37 878.5ZM2917.37 1106.5C2874.76 1106.5 2842.95 1073.5 2842.95 1025.5C2842.95 977.5 2875.36 944.5 2917.37 944.5C2958.78 944.5 2991.19 976.3 2991.19 1025.5C2991.19 1080.7 2953.98 1106.5 2917.37 1106.5Z" fill="#6D4AFF"/>
<path d="M3213.48 1173.1C3271.1 1173.1 3320.32 1140.1 3320.32 1089.7C3320.32 981.7 3174.47 1006.9 3174.47 963.1C3174.47 948.7 3187.08 937.9 3206.88 937.9C3227.29 937.9 3240.49 949.3 3243.49 966.1H3314.92C3310.72 910.9 3268.7 877.9 3206.88 878.5C3143.26 878.5 3104.25 916.3 3104.25 963.1C3104.25 1072.3 3248.3 1044.1 3248.3 1089.7C3248.3 1103.5 3235.09 1113.7 3213.48 1113.7C3192.48 1113.7 3173.27 1103.5 3169.67 1081.9H3097.05C3101.25 1135.3 3148.06 1173.1 3213.48 1173.1Z" fill="#6D4AFF"/>
<path d="M3465.83 1173.1C3523.45 1173.1 3572.66 1140.1 3572.66 1089.7C3572.66 981.7 3426.81 1006.9 3426.81 963.1C3426.81 948.7 3439.42 937.9 3459.22 937.9C3479.63 937.9 3492.84 949.3 3495.84 966.1H3567.26C3563.06 910.9 3521.04 877.9 3459.22 878.5C3395.6 878.5 3356.59 916.3 3356.59 963.1C3356.59 1072.3 3500.64 1044.1 3500.64 1089.7C3500.64 1103.5 3487.43 1113.7 3465.83 1113.7C3444.82 1113.7 3425.61 1103.5 3422.01 1081.9H3349.39C3353.59 1135.3 3400.4 1173.1 3465.83 1173.1Z" fill="#6D4AFF"/>
<path d="M2630.84 739H2433.61V1166.51H2511.74V1060.09C2511.74 1049.75 2515.82 1039.76 2523.2 1032.46C2530.49 1025.17 2540.47 1021 2550.8 1021H2630.84C2668.17 1021 2703.93 1006.14 2730.23 979.818C2756.62 953.408 2771.38 917.616 2771.38 880.346C2771.47 861.842 2767.91 843.424 2760.88 826.31C2753.84 809.195 2743.51 793.558 2730.41 780.44C2717.3 767.321 2701.85 756.896 2684.75 749.773C2667.73 742.649 2649.41 739 2630.84 739ZM2692.38 879.217C2692.38 887.991 2690.65 896.679 2687.26 904.758C2683.88 912.838 2679.02 920.222 2672.77 926.39C2666.6 932.558 2659.22 937.51 2651.15 940.811C2643.08 944.2 2634.4 945.85 2625.63 945.85H2511.39V812.67H2625.63C2634.4 812.67 2643.08 814.408 2651.24 817.796C2659.31 821.184 2666.69 826.136 2672.85 832.304C2679.02 838.559 2683.96 845.944 2687.26 854.023C2690.56 862.189 2692.3 870.877 2692.21 879.651L2692.38 879.217Z" fill="#6D4AFF"/>
</svg>
