<svg width="4586" height="2064" viewBox="0 0 4586 2064" fill="none" xmlns="http://www.w3.org/2000/svg">
<rect width="4585" height="2064" transform="translate(0.726562)" fill="white"/>
<path d="M3338.79 799.062H3123.74V1265.37H3208.92V1149.29C3208.92 1138.01 3213.37 1127.12 3221.42 1119.16C3229.37 1111.2 3240.25 1106.65 3251.52 1106.65H3338.79C3379.49 1106.65 3418.49 1090.44 3447.17 1061.73C3475.94 1032.93 3492.03 993.885 3492.03 953.234C3492.13 933.05 3488.25 912.961 3480.58 894.294C3472.91 875.627 3461.65 858.57 3447.36 844.261C3433.06 829.953 3416.22 818.582 3397.57 810.812C3379.02 803.042 3359.05 799.062 3338.79 799.062ZM3405.9 952.002C3405.9 961.572 3404.01 971.048 3400.31 979.861C3396.62 988.673 3391.32 996.728 3384.51 1003.46C3377.79 1010.18 3369.74 1015.58 3360.94 1019.19C3352.14 1022.88 3342.67 1024.68 3333.11 1024.68H3208.55V879.417H3333.11C3342.67 879.417 3352.14 881.312 3361.03 885.008C3369.84 888.703 3377.88 894.104 3384.6 900.832C3391.32 907.655 3396.72 915.709 3400.31 924.522C3403.91 933.429 3405.8 942.905 3405.71 952.476L3405.9 952.002Z" fill="#6D4AFF"/>
<path d="M2824.54 1263.66L2652.93 797.736H2749.85L2862.78 1131.19C2867.23 1143.13 2870.44 1155.45 2872.34 1168.05H2873.28C2874.7 1155.35 2877.92 1142.94 2882.84 1131.19L2996.14 797.736H3093.73L2921.27 1263.66H2824.54Z" fill="#6D4AFF"/>
<path d="M3523.93 1263.66V797.633H3598.61L3818.4 1086.65C3826.35 1096.6 3833.16 1107.3 3838.94 1118.67H3840.26C3838.75 1104.65 3838.09 1090.53 3838.18 1076.41V797.633H3926.21V1263.56H3851.53L3631.08 974.547C3623.32 964.502 3616.5 953.795 3610.63 942.519H3609.88C3611.11 956.543 3611.58 970.662 3611.3 984.781V1263.56H3523.93V1263.66Z" fill="#6D4AFF"/>
<path d="M660.727 1138.14V1258.07H744.465V1143.38C744.465 1132.25 748.838 1121.49 756.746 1113.63C764.562 1105.78 775.262 1101.29 786.334 1101.29H872.212C912.22 1101.29 950.647 1085.29 978.931 1056.76C1007.22 1028.32 1023.13 989.684 1023.13 949.459C1023.13 909.234 1007.22 870.599 978.931 842.068C950.647 813.629 912.22 797.633 872.119 797.633H660.727V947.495H744.465V876.867H866.536C885.517 876.867 903.66 884.444 917.058 897.915C930.456 911.386 937.993 929.627 937.993 948.711C937.993 967.794 930.456 986.036 917.058 999.507C903.66 1012.98 885.517 1020.55 866.536 1020.55H777.867C762.515 1020.55 747.256 1023.55 733.114 1029.54C718.878 1035.43 706.038 1044.13 695.152 1055.07C684.266 1066.02 675.706 1079.02 669.752 1093.24C663.797 1107.37 660.727 1122.71 660.727 1138.14Z" fill="#1B1340"/>
<path d="M1036.06 1258.07V1075.37C1036.06 1000.82 1079.32 941.508 1165.95 941.508C1179.81 941.32 1193.67 942.817 1207.26 946.091V1021.21C1197.4 1020.55 1188.93 1020.55 1184.93 1020.55C1139.06 1020.55 1119.33 1041.7 1119.33 1084.54V1258.07H1036.06Z" fill="#1B1340"/>
<path d="M1232.19 1103.16C1232.19 1011.48 1301.04 941.602 1396.88 941.602C1492.71 941.602 1561.56 1011.48 1561.56 1103.16C1561.56 1194.83 1492.71 1265.37 1396.88 1265.37C1301.04 1265.37 1232.19 1194.74 1232.19 1103.16ZM1479.5 1103.16C1479.5 1051.05 1444.7 1014.1 1396.88 1014.1C1348.96 1014.1 1314.25 1050.96 1314.25 1103.16C1314.25 1155.92 1349.05 1192.21 1396.88 1192.21C1444.79 1192.21 1479.5 1155.82 1479.5 1103.16Z" fill="#1B1340"/>
<path d="M1827.85 1103.16C1827.85 1011.48 1896.7 941.602 1992.53 941.602C2088.28 941.602 2157.13 1011.48 2157.13 1103.16C2157.13 1194.83 2088.28 1265.37 1992.53 1265.37C1896.7 1265.37 1827.85 1194.74 1827.85 1103.16ZM2075.06 1103.16C2075.06 1051.05 2040.27 1014.1 1992.44 1014.1C1944.62 1014.1 1909.82 1050.96 1909.82 1103.16C1909.82 1155.92 1944.62 1192.21 1992.44 1192.21C2040.27 1192.21 2075.06 1155.82 2075.06 1103.16Z" fill="#1B1340"/>
<path d="M2200.39 1258.07V1082.02C2200.39 1000.26 2252.22 941.509 2344.7 941.509C2436.53 941.509 2488.36 1000.16 2488.36 1082.02V1258.07H2405.74V1088.56C2405.74 1043.1 2385.36 1014.66 2344.7 1014.66C2304.04 1014.66 2283.67 1043.01 2283.67 1088.56V1258.07H2200.39Z" fill="#1B1340"/>
<path d="M1802.91 1014.75H1713.04V1130.19C1713.04 1170.41 1727.46 1188.84 1768.77 1188.84C1772.68 1188.84 1782.54 1188.84 1795.01 1188.19V1256.1C1777.98 1260.69 1762.91 1263.4 1746.44 1263.4C1676.94 1263.4 1629.67 1221.21 1629.67 1141.41V1014.75H1573.84V948.146H1587.8C1593.29 948.146 1598.78 947.024 1603.8 944.966C1608.92 942.814 1613.48 939.727 1617.39 935.798C1621.3 931.869 1624.37 927.285 1626.51 922.14C1628.65 916.995 1629.67 911.569 1629.67 906.05V843.28H1712.94V948.146H1802.82V1014.75H1802.91Z" fill="#1B1340"/>
</svg>
