<svg width="4457" height="2064" viewBox="0 0 4457 2064" fill="none" xmlns="http://www.w3.org/2000/svg">
<path d="M660.227 1138.14V1258.07H743.965V1143.38C743.965 1132.25 748.338 1121.49 756.246 1113.63C764.062 1105.78 774.762 1101.29 785.834 1101.29H871.712C911.72 1101.29 950.147 1085.29 978.431 1056.76C1006.72 1028.32 1022.63 989.684 1022.63 949.459C1022.63 909.234 1006.72 870.599 978.431 842.068C950.147 813.629 911.72 797.633 871.619 797.633H660.227V947.495H743.965V876.867H866.036C885.017 876.867 903.16 884.444 916.558 897.915C929.956 911.386 937.493 929.627 937.493 948.711C937.493 967.794 929.956 986.036 916.558 999.507C903.16 1012.98 885.017 1020.55 866.036 1020.55H777.367C762.015 1020.55 746.756 1023.55 732.614 1029.54C718.378 1035.43 705.538 1044.13 694.652 1055.07C683.766 1066.02 675.206 1079.02 669.252 1093.24C663.297 1107.37 660.227 1122.71 660.227 1138.14Z" fill="white"/>
<path d="M1035.56 1258.07V1075.37C1035.56 1000.82 1078.82 941.508 1165.45 941.508C1179.31 941.321 1193.17 942.817 1206.76 946.091V1021.21C1196.9 1020.55 1188.43 1020.55 1184.43 1020.55C1138.56 1020.55 1118.83 1041.7 1118.83 1084.54V1258.07H1035.56Z" fill="white"/>
<path d="M1231.69 1103.16C1231.69 1011.48 1300.54 941.602 1396.38 941.602C1492.21 941.602 1561.06 1011.48 1561.06 1103.16C1561.06 1194.83 1492.21 1265.37 1396.38 1265.37C1300.54 1265.37 1231.69 1194.74 1231.69 1103.16ZM1479 1103.16C1479 1051.05 1444.2 1014.1 1396.38 1014.1C1348.46 1014.1 1313.75 1050.96 1313.75 1103.16C1313.75 1155.92 1348.55 1192.21 1396.38 1192.21C1444.29 1192.21 1479 1155.82 1479 1103.16Z" fill="white"/>
<path d="M1827.35 1103.16C1827.35 1011.48 1896.2 941.602 1992.03 941.602C2087.78 941.602 2156.63 1011.48 2156.63 1103.16C2156.63 1194.83 2087.78 1265.37 1992.03 1265.37C1896.2 1265.37 1827.35 1194.74 1827.35 1103.16ZM2074.56 1103.16C2074.56 1051.05 2039.77 1014.1 1991.94 1014.1C1944.12 1014.1 1909.32 1050.96 1909.32 1103.16C1909.32 1155.92 1944.12 1192.21 1991.94 1192.21C2039.77 1192.21 2074.56 1155.82 2074.56 1103.16Z" fill="white"/>
<path d="M2199.89 1258.07V1082.02C2199.89 1000.26 2251.72 941.509 2344.2 941.509C2436.03 941.509 2487.86 1000.16 2487.86 1082.02V1258.07H2405.24V1088.56C2405.24 1043.1 2384.86 1014.66 2344.2 1014.66C2303.54 1014.66 2283.17 1043.01 2283.17 1088.56V1258.07H2199.89Z" fill="white"/>
<path d="M1802.41 1014.75H1712.54V1130.19C1712.54 1170.41 1726.96 1188.84 1768.27 1188.84C1772.18 1188.84 1782.04 1188.84 1794.51 1188.19V1256.1C1777.48 1260.69 1762.41 1263.4 1745.94 1263.4C1676.44 1263.4 1629.17 1221.21 1629.17 1141.41V1014.75H1573.34V948.146H1587.3C1592.79 948.146 1598.28 947.024 1603.3 944.966C1608.42 942.814 1612.98 939.727 1616.89 935.798C1620.8 931.869 1623.87 927.285 1626.01 922.14C1628.15 916.995 1629.17 911.569 1629.17 906.05V843.28H1712.44V948.146H1802.32V1014.75H1802.41Z" fill="white"/>
<path d="M2652.43 809.514H2769.41L2879.05 1078.59C2888.82 1101.14 2897.19 1124.15 2904.23 1147.64H2905.36C2912.41 1124.15 2920.77 1101.05 2930.54 1078.59L3040.19 809.514H3157.16V1258.23H3072.41V957.619C3072.32 947.701 3072.79 937.784 3073.82 927.96H3072.41C3069.78 938.533 3066.31 948.918 3061.89 958.929L2940.41 1252.99H2870.13L2748.27 958.929C2743.85 948.824 2740.09 938.533 2737.08 927.96H2735.77C2736.71 937.784 2737.18 947.701 2737.08 957.619V1258.32H2652.43V809.514Z" fill="white"/>
<path d="M3447.02 962.204C3471.54 975.022 3491.83 994.669 3505.46 1018.71C3520.02 1044.82 3527.35 1074.38 3526.79 1104.23V1258.23H3452.56L3447.3 1212.01C3437.62 1228.76 3423.43 1242.41 3406.33 1251.58C3388.01 1261.03 3367.53 1265.8 3346.86 1265.34C3320.46 1265.62 3294.53 1258.6 3271.88 1245.03C3248.96 1231.19 3230.35 1211.35 3217.95 1187.78C3204.42 1161.77 3197.66 1132.86 3198.22 1103.57C3197.85 1074.76 3205.27 1046.41 3219.64 1021.33C3233.74 997.008 3254.12 976.987 3278.84 963.42C3304.39 949.293 3333.14 941.995 3362.36 942.37C3391.77 941.808 3420.9 948.638 3447.02 962.204ZM3419.86 1169.34C3436.02 1154 3444.01 1132.39 3444.01 1103.57C3445.04 1080 3436.68 1056.98 3420.9 1039.48C3413.38 1031.63 3404.36 1025.45 3394.31 1021.15C3384.25 1016.84 3373.54 1014.69 3362.64 1014.69C3351.75 1014.69 3340.94 1016.84 3330.98 1021.15C3320.93 1025.45 3311.91 1031.63 3304.39 1039.48C3289.36 1057.45 3281.09 1080.09 3281.09 1103.48C3281.09 1126.87 3289.36 1149.51 3304.39 1167.47C3311.81 1175.52 3320.83 1181.79 3330.98 1186.09C3341.03 1190.3 3351.93 1192.45 3362.83 1192.17C3373.36 1192.36 3383.88 1190.4 3393.74 1186.47C3403.42 1182.63 3412.35 1176.74 3419.86 1169.34Z" fill="white"/>
<path d="M3572.54 884.924C3567.56 880.339 3563.62 874.819 3560.89 868.644C3558.17 862.47 3556.85 855.827 3556.95 849.091C3556.85 842.354 3558.26 835.618 3560.89 829.349C3563.62 823.081 3567.56 817.467 3572.54 812.883C3582.41 803.153 3595.75 797.633 3609.66 797.633C3623.56 797.633 3636.9 803.153 3646.77 812.883C3651.75 817.561 3655.69 823.175 3658.32 829.349C3660.96 835.618 3662.36 842.261 3662.27 849.091C3662.36 855.827 3661.05 862.47 3658.32 868.644C3655.69 874.819 3651.75 880.339 3646.77 884.924C3636.81 894.467 3623.47 899.8 3609.66 899.8C3595.75 899.8 3582.5 894.467 3572.54 884.924ZM3651.47 1258.23H3568.03V949.012H3651.47V1258.23Z" fill="white"/>
<path d="M3795.78 1258.23H3712.26V809.514H3795.78V1258.23Z" fill="white"/>
</svg>
