<svg width="3266" height="832" viewBox="0 0 3266 832" fill="none" xmlns="http://www.w3.org/2000/svg">
<g clip-path="url(#clip0_11864_192281)">
<path d="M2678.79 183.062H2463.74V649.368H2548.92V533.289C2548.92 522.013 2553.37 511.116 2561.42 503.156C2569.37 495.196 2580.25 490.648 2591.52 490.648H2678.79C2719.49 490.648 2758.49 474.444 2787.17 445.732C2815.94 416.926 2832.03 377.885 2832.03 337.234C2832.13 317.05 2828.25 296.961 2820.58 278.294C2812.91 259.627 2801.65 242.57 2787.36 228.261C2773.06 213.953 2756.22 202.582 2737.57 194.812C2719.02 187.042 2699.05 183.062 2678.79 183.062ZM2745.9 336.002C2745.9 345.572 2744.01 355.048 2740.31 363.861C2736.62 372.673 2731.32 380.728 2724.51 387.456C2717.79 394.184 2709.74 399.585 2700.94 403.186C2692.14 406.881 2682.67 408.682 2673.11 408.682H2548.55V263.417H2673.11C2682.67 263.417 2692.14 265.312 2701.03 269.008C2709.84 272.703 2717.88 278.104 2724.6 284.832C2731.32 291.655 2736.72 299.709 2740.31 308.522C2743.91 317.429 2745.8 326.905 2745.71 336.476L2745.9 336.002Z" fill="white"/>
<path d="M2164.54 647.664L1992.93 181.736H2089.85L2202.78 515.191C2207.23 527.131 2210.44 539.449 2212.34 552.052H2213.28C2214.7 539.355 2217.92 526.941 2222.84 515.191L2336.14 181.736H2433.73L2261.27 647.664H2164.54Z" fill="white"/>
<path d="M2863.93 647.655V181.633H2938.61L3158.4 470.646C3166.35 480.596 3173.16 491.304 3178.94 502.675H3180.26C3178.75 488.65 3178.09 474.531 3178.18 460.412V181.633H3266.21V647.56H3191.53L2971.08 358.547C2963.32 348.502 2956.5 337.795 2950.63 326.519H2949.88C2951.11 340.543 2951.58 354.662 2951.3 368.781V647.56H2863.93V647.655Z" fill="white"/>
<path d="M0.726562 522.143V642.07H84.4647V527.382C84.4647 516.25 88.8377 505.492 96.7463 497.634C104.562 489.776 115.262 485.286 126.334 485.286H212.212C252.22 485.286 290.647 469.289 318.931 440.758C347.216 412.319 363.126 373.684 363.126 333.459C363.126 293.234 347.216 254.599 318.931 226.068C290.647 197.629 252.22 181.633 212.119 181.633H0.726562V331.495H84.4647V260.867H206.536C225.517 260.867 243.66 268.444 257.058 281.915C270.456 295.386 277.993 313.627 277.993 332.711C277.993 351.794 270.456 370.036 257.058 383.507C243.66 396.978 225.517 404.555 206.536 404.555H117.867C102.515 404.555 87.256 407.548 73.1135 413.535C58.8781 419.429 46.0382 428.129 35.1522 439.074C24.2663 450.019 15.7064 463.022 9.75174 477.241C3.79703 491.366 0.726562 506.708 0.726562 522.143Z" fill="white"/>
<path d="M376.06 642.07V459.373C376.06 384.816 419.325 325.508 505.947 325.508C519.811 325.32 533.674 326.817 547.258 330.091V405.21C537.396 404.555 528.929 404.555 524.928 404.555C479.058 404.555 459.333 425.696 459.333 468.541V642.07H376.06Z" fill="white"/>
<path d="M572.19 487.158C572.19 395.482 641.042 325.602 736.875 325.602C832.709 325.602 901.56 395.482 901.56 487.158C901.56 578.834 832.709 649.368 736.875 649.368C641.042 649.368 572.19 578.74 572.19 487.158ZM819.497 487.158C819.497 435.052 784.699 398.101 736.875 398.101C688.958 398.101 654.253 434.959 654.253 487.158C654.253 539.918 689.051 576.215 736.875 576.215C784.792 576.215 819.497 539.825 819.497 487.158Z" fill="white"/>
<path d="M1167.85 487.158C1167.85 395.482 1236.7 325.602 1332.53 325.602C1428.28 325.602 1497.13 395.482 1497.13 487.158C1497.13 578.834 1428.28 649.368 1332.53 649.368C1236.7 649.368 1167.85 578.74 1167.85 487.158ZM1415.06 487.158C1415.06 435.052 1380.27 398.101 1332.44 398.101C1284.62 398.101 1249.82 434.959 1249.82 487.158C1249.82 539.918 1284.62 576.215 1332.44 576.215C1380.27 576.215 1415.06 539.825 1415.06 487.158Z" fill="white"/>
<path d="M1540.39 642.072V466.016C1540.39 384.256 1592.22 325.509 1684.7 325.509C1776.53 325.509 1828.36 384.163 1828.36 466.016V642.072H1745.74V472.565C1745.74 427.101 1725.36 398.663 1684.7 398.663C1644.04 398.663 1623.67 427.007 1623.67 472.565V642.072H1540.39Z" fill="white"/>
<path d="M1142.91 398.752H1053.04V514.188C1053.04 554.414 1067.46 572.842 1108.77 572.842C1112.68 572.842 1122.54 572.842 1135.01 572.187V640.102C1117.98 644.686 1102.91 647.399 1086.44 647.399C1016.94 647.399 969.67 605.21 969.67 525.414V398.752H913.844V332.146H927.8C933.29 332.146 938.779 331.024 943.804 328.966C948.921 326.814 953.48 323.727 957.388 319.798C961.296 315.869 964.366 311.285 966.506 306.14C968.646 300.995 969.67 295.569 969.67 290.05V227.28H1052.94V332.146H1142.82V398.752H1142.91Z" fill="white"/>
</g>
<defs>
<clipPath id="clip0_11864_192281">
<rect width="3265" height="832" fill="white" transform="translate(0.726562)"/>
</clipPath>
</defs>
</svg>
