<svg width="4457" height="2064" viewBox="0 0 4457 2064" fill="none" xmlns="http://www.w3.org/2000/svg">
<rect width="4456" height="2064" transform="translate(0.726562)" fill="white"/>
<path d="M660.727 1138.14V1258.07H744.465V1143.38C744.465 1132.25 748.838 1121.49 756.746 1113.63C764.562 1105.78 775.262 1101.29 786.334 1101.29H872.212C912.22 1101.29 950.647 1085.29 978.931 1056.76C1007.22 1028.32 1023.13 989.684 1023.13 949.459C1023.13 909.234 1007.22 870.599 978.931 842.068C950.647 813.629 912.22 797.633 872.119 797.633H660.727V947.495H744.465V876.867H866.536C885.517 876.867 903.66 884.444 917.058 897.915C930.456 911.386 937.993 929.627 937.993 948.711C937.993 967.794 930.456 986.036 917.058 999.507C903.66 1012.98 885.517 1020.55 866.536 1020.55H777.867C762.515 1020.55 747.256 1023.55 733.114 1029.54C718.878 1035.43 706.038 1044.13 695.152 1055.07C684.266 1066.02 675.706 1079.02 669.752 1093.24C663.797 1107.37 660.727 1122.71 660.727 1138.14Z" fill="#1B1340"/>
<path d="M1036.06 1258.07V1075.37C1036.06 1000.82 1079.32 941.508 1165.95 941.508C1179.81 941.321 1193.67 942.817 1207.26 946.091V1021.21C1197.4 1020.55 1188.93 1020.55 1184.93 1020.55C1139.06 1020.55 1119.33 1041.7 1119.33 1084.54V1258.07H1036.06Z" fill="#1B1340"/>
<path d="M1232.19 1103.16C1232.19 1011.48 1301.04 941.602 1396.88 941.602C1492.71 941.602 1561.56 1011.48 1561.56 1103.16C1561.56 1194.83 1492.71 1265.37 1396.88 1265.37C1301.04 1265.37 1232.19 1194.74 1232.19 1103.16ZM1479.5 1103.16C1479.5 1051.05 1444.7 1014.1 1396.88 1014.1C1348.96 1014.1 1314.25 1050.96 1314.25 1103.16C1314.25 1155.92 1349.05 1192.21 1396.88 1192.21C1444.79 1192.21 1479.5 1155.82 1479.5 1103.16Z" fill="#1B1340"/>
<path d="M1827.85 1103.16C1827.85 1011.48 1896.7 941.602 1992.53 941.602C2088.28 941.602 2157.13 1011.48 2157.13 1103.16C2157.13 1194.83 2088.28 1265.37 1992.53 1265.37C1896.7 1265.37 1827.85 1194.74 1827.85 1103.16ZM2075.06 1103.16C2075.06 1051.05 2040.27 1014.1 1992.44 1014.1C1944.62 1014.1 1909.82 1050.96 1909.82 1103.16C1909.82 1155.92 1944.62 1192.21 1992.44 1192.21C2040.27 1192.21 2075.06 1155.82 2075.06 1103.16Z" fill="#1B1340"/>
<path d="M2200.39 1258.07V1082.02C2200.39 1000.26 2252.22 941.509 2344.7 941.509C2436.53 941.509 2488.36 1000.16 2488.36 1082.02V1258.07H2405.74V1088.56C2405.74 1043.1 2385.36 1014.66 2344.7 1014.66C2304.04 1014.66 2283.67 1043.01 2283.67 1088.56V1258.07H2200.39Z" fill="#1B1340"/>
<path d="M1802.91 1014.75H1713.04V1130.19C1713.04 1170.41 1727.46 1188.84 1768.77 1188.84C1772.68 1188.84 1782.54 1188.84 1795.01 1188.19V1256.1C1777.98 1260.69 1762.91 1263.4 1746.44 1263.4C1676.94 1263.4 1629.67 1221.21 1629.67 1141.41V1014.75H1573.84V948.146H1587.8C1593.29 948.146 1598.78 947.024 1603.8 944.966C1608.92 942.814 1613.48 939.727 1617.39 935.798C1621.3 931.869 1624.37 927.285 1626.51 922.14C1628.65 916.995 1629.67 911.569 1629.67 906.05V843.28H1712.94V948.146H1802.82V1014.75H1802.91Z" fill="#1B1340"/>
<path d="M2652.93 809.514H2769.91L2879.55 1078.59C2889.32 1101.14 2897.69 1124.15 2904.73 1147.64H2905.86C2912.91 1124.15 2921.27 1101.05 2931.04 1078.59L3040.69 809.514H3157.66V1258.23H3072.91V957.619C3072.82 947.701 3073.29 937.784 3074.32 927.96H3072.91C3070.28 938.533 3066.81 948.918 3062.39 958.929L2940.91 1252.99H2870.63L2748.77 958.929C2744.35 948.824 2740.59 938.533 2737.58 927.96H2736.27C2737.21 937.784 2737.68 947.701 2737.58 957.619V1258.32H2652.93V809.514Z" fill="#6D4AFF"/>
<path d="M3447.52 962.204C3472.04 975.022 3492.33 994.669 3505.96 1018.71C3520.52 1044.82 3527.85 1074.38 3527.29 1104.23V1258.23H3453.06L3447.8 1212.01C3438.12 1228.76 3423.93 1242.41 3406.83 1251.58C3388.51 1261.03 3368.03 1265.8 3347.36 1265.34C3320.96 1265.62 3295.03 1258.6 3272.38 1245.03C3249.46 1231.19 3230.85 1211.35 3218.45 1187.78C3204.92 1161.77 3198.16 1132.86 3198.72 1103.57C3198.35 1074.76 3205.77 1046.41 3220.14 1021.33C3234.24 997.008 3254.62 976.987 3279.34 963.42C3304.89 949.293 3333.64 941.995 3362.86 942.37C3392.27 941.808 3421.4 948.638 3447.52 962.204ZM3420.36 1169.34C3436.52 1154 3444.51 1132.39 3444.51 1103.57C3445.54 1080 3437.18 1056.98 3421.4 1039.48C3413.88 1031.63 3404.86 1025.45 3394.81 1021.15C3384.75 1016.84 3374.04 1014.69 3363.14 1014.69C3352.25 1014.69 3341.44 1016.84 3331.48 1021.15C3321.43 1025.45 3312.41 1031.63 3304.89 1039.48C3289.86 1057.45 3281.59 1080.09 3281.59 1103.48C3281.59 1126.87 3289.86 1149.51 3304.89 1167.47C3312.31 1175.52 3321.33 1181.79 3331.48 1186.09C3341.53 1190.3 3352.43 1192.45 3363.33 1192.17C3373.86 1192.36 3384.38 1190.4 3394.24 1186.47C3403.92 1182.63 3412.85 1176.74 3420.36 1169.34Z" fill="#6D4AFF"/>
<path d="M3573.04 884.924C3568.06 880.339 3564.12 874.819 3561.39 868.644C3558.67 862.47 3557.35 855.827 3557.45 849.091C3557.35 842.354 3558.76 835.618 3561.39 829.349C3564.12 823.081 3568.06 817.467 3573.04 812.883C3582.91 803.153 3596.25 797.633 3610.16 797.633C3624.06 797.633 3637.4 803.153 3647.27 812.883C3652.25 817.561 3656.19 823.175 3658.82 829.349C3661.46 835.618 3662.86 842.261 3662.77 849.091C3662.86 855.827 3661.55 862.47 3658.82 868.644C3656.19 874.819 3652.25 880.339 3647.27 884.924C3637.31 894.467 3623.97 899.8 3610.16 899.8C3596.25 899.8 3583 894.467 3573.04 884.924ZM3651.97 1258.23H3568.53V949.012H3651.97V1258.23Z" fill="#6D4AFF"/>
<path d="M3796.28 1258.23H3712.76V809.514H3796.28V1258.23Z" fill="#6D4AFF"/>
</svg>
