<svg width="3145" height="746" viewBox="0 0 3145 746" fill="none" xmlns="http://www.w3.org/2000/svg">
<g clip-path="url(#clip0_11864_192243)">
<path d="M0.726562 479.143V599.07H84.4647V484.382C84.4647 473.25 88.8377 462.492 96.7463 454.634C104.562 446.776 115.262 442.286 126.334 442.286H212.212C252.22 442.286 290.647 426.289 318.931 397.758C347.216 369.319 363.126 330.684 363.126 290.459C363.126 250.234 347.216 211.599 318.931 183.068C290.647 154.629 252.22 138.633 212.119 138.633H0.726562V288.495H84.4647V217.867H206.536C225.517 217.867 243.66 225.444 257.058 238.915C270.456 252.386 277.993 270.627 277.993 289.711C277.993 308.794 270.456 327.036 257.058 340.507C243.66 353.978 225.517 361.555 206.536 361.555H117.867C102.515 361.555 87.256 364.548 73.1135 370.535C58.8781 376.429 46.0382 385.129 35.1522 396.074C24.2663 407.019 15.7064 420.022 9.75174 434.241C3.79703 448.366 0.726562 463.708 0.726562 479.143Z" fill="#1B1340"/>
<path d="M376.06 599.07V416.373C376.06 341.816 419.325 282.508 505.947 282.508C519.811 282.321 533.674 283.817 547.258 287.091V362.21C537.396 361.555 528.929 361.555 524.928 361.555C479.058 361.555 459.333 382.696 459.333 425.541V599.07H376.06Z" fill="#1B1340"/>
<path d="M572.19 444.158C572.19 352.482 641.041 282.602 736.875 282.602C832.709 282.602 901.56 352.482 901.56 444.158C901.56 535.834 832.709 606.368 736.875 606.368C641.041 606.368 572.19 535.74 572.19 444.158ZM819.497 444.158C819.497 392.052 784.699 355.101 736.875 355.101C688.958 355.101 654.253 391.959 654.253 444.158C654.253 496.918 689.051 533.215 736.875 533.215C784.792 533.215 819.497 496.825 819.497 444.158Z" fill="#1B1340"/>
<path d="M1167.85 444.158C1167.85 352.482 1236.7 282.602 1332.53 282.602C1428.28 282.602 1497.13 352.482 1497.13 444.158C1497.13 535.834 1428.28 606.368 1332.53 606.368C1236.7 606.368 1167.85 535.74 1167.85 444.158ZM1415.06 444.158C1415.06 392.052 1380.27 355.101 1332.44 355.101C1284.62 355.101 1249.82 391.959 1249.82 444.158C1249.82 496.918 1284.62 533.215 1332.44 533.215C1380.27 533.215 1415.06 496.825 1415.06 444.158Z" fill="#1B1340"/>
<path d="M1540.39 599.072V423.016C1540.39 341.256 1592.22 282.509 1684.7 282.509C1776.53 282.509 1828.36 341.163 1828.36 423.016V599.072H1745.74V429.565C1745.74 384.101 1725.36 355.663 1684.7 355.663C1644.04 355.663 1623.67 384.007 1623.67 429.565V599.072H1540.39Z" fill="#1B1340"/>
<path d="M1142.91 355.752H1053.04V471.188C1053.04 511.414 1067.46 529.842 1108.77 529.842C1112.68 529.842 1122.54 529.842 1135.01 529.187V597.102C1117.98 601.686 1102.91 604.399 1086.44 604.399C1016.94 604.399 969.67 562.21 969.67 482.414V355.752H913.844V289.146H927.8C933.29 289.146 938.779 288.024 943.804 285.966C948.921 283.814 953.48 280.727 957.388 276.798C961.296 272.869 964.366 268.285 966.506 263.14C968.646 257.995 969.67 252.569 969.67 247.05V184.28H1052.94V289.146H1142.82V355.752H1142.91Z" fill="#1B1340"/>
<path d="M1992.93 150.514H2109.91L2219.55 419.591C2229.32 442.139 2237.69 465.155 2244.73 488.638H2245.86C2252.91 465.155 2261.27 442.045 2271.04 419.591L2380.69 150.514H2497.66V599.225H2412.91V298.619C2412.82 288.701 2413.29 278.784 2414.32 268.96H2412.91C2410.28 279.533 2406.81 289.918 2402.39 299.929L2280.91 593.986H2210.63L2088.77 299.929C2084.35 289.824 2080.59 279.533 2077.58 268.96H2076.27C2077.21 278.784 2077.68 288.701 2077.58 298.619V599.319H1992.93V150.514Z" fill="#6D4AFF"/>
<path d="M2787.52 303.204C2812.04 316.022 2832.33 335.669 2845.96 359.714C2860.52 385.817 2867.85 415.382 2867.29 445.227V599.226H2793.06L2787.8 553.008C2778.12 569.755 2763.93 583.415 2746.83 592.584C2728.51 602.033 2708.03 606.805 2687.36 606.337C2660.96 606.617 2635.03 599.601 2612.38 586.034C2589.46 572.188 2570.85 552.353 2558.45 528.776C2544.92 502.766 2538.16 473.857 2538.72 444.572C2538.35 415.756 2545.77 387.408 2560.14 362.334C2574.24 338.008 2594.62 317.987 2619.34 304.42C2644.89 290.293 2673.64 282.995 2702.86 283.37C2732.27 282.808 2761.4 289.638 2787.52 303.204ZM2760.36 510.345C2776.52 495.001 2784.51 473.389 2784.51 444.572C2785.54 420.995 2777.18 397.98 2761.4 380.484C2753.88 372.625 2744.86 366.45 2734.81 362.147C2724.75 357.843 2714.04 355.691 2703.14 355.691C2692.25 355.691 2681.44 357.843 2671.48 362.147C2661.43 366.45 2652.41 372.625 2644.89 380.484C2629.86 398.448 2621.59 421.089 2621.59 444.479C2621.59 467.869 2629.86 490.51 2644.89 508.474C2652.31 516.52 2661.33 522.788 2671.48 527.092C2681.53 531.302 2692.43 533.454 2703.33 533.173C2713.86 533.36 2724.38 531.396 2734.24 527.466C2743.92 523.63 2752.85 517.736 2760.36 510.345Z" fill="#6D4AFF"/>
<path d="M2913.04 225.924C2908.06 221.339 2904.12 215.819 2901.39 209.644C2898.67 203.47 2897.35 196.827 2897.45 190.091C2897.35 183.354 2898.76 176.618 2901.39 170.349C2904.12 164.081 2908.06 158.467 2913.04 153.883C2922.91 144.153 2936.25 138.633 2950.16 138.633C2964.06 138.633 2977.4 144.153 2987.27 153.883C2992.25 158.561 2996.19 164.175 2998.82 170.349C3001.46 176.618 3002.86 183.261 3002.77 190.091C3002.86 196.827 3001.55 203.47 2998.82 209.644C2996.19 215.819 2992.25 221.339 2987.27 225.924C2977.31 235.467 2963.97 240.8 2950.16 240.8C2936.25 240.8 2923 235.467 2913.04 225.924ZM2991.97 599.226H2908.53V290.012H2991.97V599.226Z" fill="#6D4AFF"/>
<path d="M3136.28 599.225H3052.76V150.514H3136.28V599.225Z" fill="#6D4AFF"/>
</g>
<defs>
<clipPath id="clip0_11864_192243">
<rect width="3144" height="746" fill="white" transform="translate(0.726562)"/>
</clipPath>
</defs>
</svg>
